# xmcd
# 
# Track frame offsets:
#     150
#     26117
#     44002
#     63069
#     86460
#     108319
#     134699
#     152561
#     171819
#     189528
#     209217
#     236915
#     260437
#     284720
# 
# Disc length: 4212
# 
# Revision: 9
# Processed by: cddbd v1.5.2PL0 Copyright (c) Steve Scherf et al.
# Submitted via: fre:ac v1.0.31
# 
DISCID=d610720e
DTITLE=Elvis Costello - My Flame Burns Blue Disc 1
DYEAR=2006
DGENRE=Rock/Pop
TTITLE0=Hora Decubitus
TTITLE1=Favourite Hour
TTITLE2=That's How You Got Killed Before
TTITLE3=Upon a Veil of Midnight Blue
TTITLE4=Clubland
TTITLE5=Almost Blue
TTITLE6=Speak Darkly, My Angel
TTITLE7=Almost Ideal Eyes
TTITLE8=Can You Be True?
TTITLE9=Put Away Forbidden Playthings
TTITLE10=Episode of Blonde
TTITLE11=My Flame Burns Blue (Blood Count)
TTITLE12=Watching the Detectives
TTITLE13=God Give Me Strength
EXTD=Elvis Costello, vocals\nSteve Nieve, piano and melodica\nMetropole Orkest\n477 5691 Deutsche\nVince Mendoza, conductor\n\nRecorded at the North Sea Jazz Festival 2004 YEAR: 2006
EXTT0=
EXTT1=
EXTT2=
EXTT3=
EXTT4=
EXTT5=
EXTT6=
EXTT7=
EXTT8=
EXTT9=
EXTT10=
EXTT11=
EXTT12=
EXTT13=
PLAYORDER=
